<?xml version="1.0" standalone="no"?>
<!DOCTYPE svg PUBLIC "-//W3C//DTD SVG 20010904//EN"
 "http://www.w3.org/TR/2001/REC-SVG-20010904/DTD/svg10.dtd">
<svg version="1.0" xmlns="http://www.w3.org/2000/svg"
 width="32.000000pt" height="32.000000pt" viewBox="0 0 32.000000 32.000000"
 preserveAspectRatio="xMidYMid meet">

<g transform="translate(0.000000,32.000000) scale(0.100000,-0.100000)"
fill="#000000" stroke="none">
<path d="M2765 4683 c-16 -2 -52 -11 -78 -19 -26 -9 -54 -13 -62 -10 -8 3 -15
1 -15 -5 0 -6 -6 -9 -14 -6 -8 3 -17 -1 -20 -10 -4 -9 -13 -13 -22 -9 -9 4
-28 -1 -41 -9 -13 -9 -29 -12 -36 -8 -20 12 -58 15 -71 4 -12 -10 -49 -19
-106 -26 -19 -2 -36 -8 -38 -14 -2 -6 -8 -9 -13 -5 -5 3 -9 0 -9 -5 0 -6 -15
-11 -33 -11 -18 0 -52 -9 -75 -20 -22 -11 -46 -20 -53 -20 -30 0 -164 -68
-201 -102 -17 -16 -33 -28 -37 -28 -21 0 -152 -72 -163 -90 -7 -11 -20 -20
-28 -20 -33 0 -340 -295 -340 -327 0 -9 -6 -13 -15 -9 -9 3 -15 0 -15 -10 0
-8 -4 -13 -8 -10 -4 2 -14 1 -21 -4 -18 -11 -4 -31 16 -23 11 4 14 3 9 -6 -5
-7 -14 -10 -21 -7 -22 8 -90 -65 -150 -163 -5 -9 -22 -32 -37 -52 -16 -20 -28
-40 -28 -45 0 -5 -11 -19 -25 -32 -44 -42 -105 -145 -99 -167 4 -16 3 -17 -5
-5 -10 13 -11 13 -12 0 -4 -31 -5 -36 -17 -57 -7 -13 -9 -23 -5 -23 4 0 3 -4
-2 -8 -14 -9 -65 -125 -65 -146 0 -9 -8 -25 -17 -37 -10 -11 -26 -30 -35 -41
-9 -11 -14 -26 -11 -34 3 -9 -1 -14 -12 -14 -12 0 -15 -5 -10 -20 3 -11 -1
-30 -11 -45 -9 -14 -14 -25 -11 -25 3 0 -1 -16 -9 -35 -8 -20 -12 -40 -8 -46
3 -5 1 -15 -4 -22 -5 -7 -9 -26 -7 -44 2 -20 -3 -34 -11 -37 -10 -4 -13 -15
-10 -32 3 -15 2 -32 -1 -38 -4 -6 -8 -26 -10 -46 -4 -60 -5 -65 -15 -76 -9
-12 -4 -117 7 -146 4 -10 11 -18 16 -18 5 0 9 -10 9 -22 0 -19 2 -20 11 -8 9
12 10 11 6 -6 -3 -15 2 -25 17 -31 44 -20 53 11 18 65 -11 18 -13 44 -8 125 6
111 8 121 38 216 17 52 18 65 7 72 -7 4 -19 3 -25 -2 -8 -7 -14 -6 -19 1 -8
14 -7 16 23 24 15 5 22 3 22 -5 0 -10 3 -10 12 -1 10 10 10 15 -2 22 -12 8
-12 12 -3 18 7 4 15 27 18 50 3 23 15 59 26 79 63 111 87 161 82 167 -4 3 -1
6 6 6 8 0 10 7 6 21 -5 15 -4 19 4 14 8 -5 10 1 5 21 -5 18 -3 25 4 20 17 -10
23 10 7 24 -8 7 -12 16 -9 21 3 5 0 9 -5 9 -6 0 -11 5 -11 11 0 8 5 8 15 -1
10 -9 15 -9 15 -1 0 6 8 11 18 11 15 -1 15 -2 -2 -15 -11 -8 -17 -18 -13 -21
10 -10 33 19 48 61 7 22 17 44 21 50 4 5 8 19 8 32 0 13 6 23 13 23 14 0 77
89 77 108 0 5 7 13 16 16 9 3 14 13 11 21 -4 9 -1 12 9 8 8 -3 14 1 14 9 0 8
15 28 32 44 18 16 43 48 55 70 13 23 40 59 60 81 21 21 75 78 119 126 45 48
87 87 93 87 6 0 11 6 11 14 0 8 20 26 45 40 44 27 78 63 70 77 -3 4 7 10 23
14 15 4 45 21 67 39 22 18 66 46 98 62 32 16 66 36 75 44 17 16 49 31 56 27 3
-1 15 8 29 21 13 12 41 25 61 29 20 3 48 17 63 31 15 14 39 26 53 28 58 5 105
15 118 27 8 7 17 11 19 10 10 -8 23 -1 17 8 -4 7 0 9 14 5 11 -4 35 -1 54 7
18 8 38 12 44 10 7 -2 42 3 79 12 72 16 121 19 128 8 2 -5 3 -3 1 3 -6 26 153
55 293 54 57 0 111 4 122 10 14 7 20 7 23 -1 2 -6 23 -11 46 -11 24 1 42 -4
42 -10 0 -6 3 -9 6 -6 3 4 36 -2 72 -12 37 -10 100 -24 140 -31 39 -7 72 -17
72 -20 0 -7 53 -22 66 -19 3 1 11 -6 17 -14 12 -16 117 -56 146 -56 9 0 29 -7
45 -15 15 -8 35 -15 43 -15 7 0 23 -9 35 -20 12 -11 34 -20 50 -20 15 0 28 -4
28 -10 0 -5 11 -12 25 -16 14 -3 25 -9 25 -13 0 -3 14 -12 30 -19 17 -8 36
-19 43 -25 6 -7 38 -31 69 -55 41 -31 77 -74 131 -155 41 -62 83 -129 92 -150
15 -31 52 -67 58 -55 1 2 8 13 15 26 7 13 8 22 2 22 -5 0 -8 15 -5 34 3 28 1
34 -11 29 -9 -3 -14 2 -14 16 0 12 -4 21 -10 21 -5 0 -9 10 -7 22 1 14 -4 23
-13 23 -8 0 -16 10 -18 22 -2 12 -12 25 -23 28 -22 7 -25 21 -6 28 8 4 7 6 -3
6 -8 1 -22 15 -29 33 -8 18 -16 27 -19 20 -3 -9 -7 -9 -16 1 -8 6 -12 17 -9
23 2 6 -3 14 -11 17 -9 4 -16 13 -16 21 0 9 -6 13 -13 11 -6 -3 -17 5 -22 17
-6 13 -14 21 -18 20 -5 -2 -21 7 -35 21 -37 34 -111 79 -121 73 -4 -3 -17 1
-27 9 -10 8 -24 15 -31 15 -7 0 -37 15 -68 34 -31 18 -95 46 -143 61 -48 15
-95 31 -104 36 -10 5 -27 9 -38 9 -11 0 -20 4 -20 8 0 11 -84 39 -160 53 -36
6 -74 16 -86 21 -11 5 -48 11 -81 12 -33 2 -66 7 -74 12 -14 9 -288 14 -344 7z"/>
<path d="M3352 3889 c-62 -4 -120 -10 -130 -14 -9 -3 -35 -9 -57 -11 -60 -7
-203 -42 -228 -56 -12 -7 -30 -13 -41 -15 -29 -5 -134 -64 -140 -78 -14 -38
82 -45 156 -11 18 8 44 16 58 19 14 2 52 12 85 22 72 20 65 19 247 41 90 11
143 22 135 27 -8 5 -5 7 8 3 68 -16 85 -17 85 -4 0 9 2 10 8 1 4 -6 25 -14 47
-18 22 -4 47 -11 55 -15 20 -10 40 -2 40 17 0 13 3 13 16 2 14 -11 15 -10 12
11 -3 25 -48 55 -95 63 -15 3 -43 8 -60 11 -64 12 -89 12 -201 5z"/>
<path d="M4271 3807 c-13 -6 -23 -16 -21 -21 3 -13 -28 -28 -42 -20 -7 4 -8 3
-4 -4 4 -7 3 -12 -3 -12 -5 0 -11 5 -13 11 -5 14 -107 14 -121 0 -6 -6 -23
-11 -38 -11 -15 0 -43 -7 -62 -15 -42 -17 -88 -20 -103 -5 -16 16 -50 20 -144
20 -120 -1 -130 -2 -130 -19 0 -12 -3 -12 -12 -3 -13 13 -50 16 -61 5 -4 -3
-27 -7 -52 -9 -42 -2 -69 -7 -195 -35 -24 -6 -47 -14 -50 -19 -3 -5 -16 -8
-29 -5 -13 2 -31 0 -40 -4 -9 -5 -32 -11 -51 -14 -94 -14 -120 -21 -139 -38
-12 -11 -27 -16 -37 -12 -14 5 -16 2 -12 -14 5 -17 1 -20 -18 -19 -13 0 -24 4
-24 9 0 4 -12 -1 -27 -10 -15 -10 -27 -16 -28 -14 0 2 -17 -2 -37 -9 -20 -8
-34 -18 -31 -24 4 -5 0 -7 -8 -4 -8 3 -23 0 -34 -8 -10 -8 -13 -14 -6 -14 7 0
9 -5 6 -10 -5 -8 -11 -8 -20 0 -16 13 -95 -18 -95 -37 0 -7 -7 -13 -15 -13
-14 0 -57 -21 -115 -55 -9 -6 -24 -17 -32 -25 -9 -8 -26 -22 -38 -30 -13 -8
-48 -35 -79 -59 -85 -67 -89 -69 -73 -49 20 25 6 37 -34 31 -25 -4 -49 -20
-81 -52 -24 -25 -40 -37 -34 -26 5 11 28 37 50 58 22 22 43 47 46 58 4 10 13
19 20 19 8 0 19 8 24 18 10 18 128 142 136 142 18 0 185 138 185 153 0 5 7 15
15 24 8 8 13 19 10 24 -8 12 -45 12 -45 -1 0 -5 -7 -7 -17 -3 -13 5 -15 2 -11
-15 4 -12 1 -25 -4 -29 -6 -3 -8 -1 -4 5 3 6 2 14 -4 17 -13 8 -80 -22 -80
-35 0 -6 -4 -9 -9 -8 -15 4 -65 -38 -170 -142 -106 -106 -146 -151 -143 -162
1 -5 -4 -8 -11 -8 -11 0 -41 -36 -42 -52 0 -7 -25 -34 -64 -71 -13 -12 -48
-56 -79 -97 -31 -41 -64 -84 -74 -94 -10 -11 -18 -27 -18 -35 -1 -9 -10 -27
-21 -40 -17 -21 -31 -25 -97 -29 -42 -2 -92 -11 -111 -18 -18 -8 -43 -14 -55
-14 -11 0 -48 -9 -81 -19 -33 -10 -87 -22 -120 -26 -33 -4 -66 -12 -72 -17 -7
-6 -22 -8 -33 -5 -11 3 -20 1 -20 -4 0 -5 -18 -12 -40 -15 -22 -4 -40 -11 -40
-16 0 -5 -4 -7 -9 -3 -13 7 -123 -31 -136 -48 -5 -6 -27 -23 -47 -37 -20 -13
-39 -32 -41 -42 -8 -31 14 -102 40 -126 17 -15 20 -23 11 -26 -7 -3 -30 -10
-50 -16 -21 -6 -45 -21 -53 -33 -13 -19 -13 -22 1 -30 17 -10 102 0 119 13 12
9 19 10 112 13 l72 2 -6 -29 c-4 -16 -13 -37 -21 -47 -21 -24 -81 -169 -82
-196 0 -13 -5 -23 -11 -23 -5 0 -7 -4 -4 -10 3 -5 1 -10 -5 -10 -7 0 -9 -8 -5
-20 4 -12 2 -20 -5 -20 -6 0 -9 -4 -5 -10 3 -5 0 -18 -6 -29 -10 -15 -9 -22 4
-36 9 -9 17 -21 17 -26 0 -6 -7 -3 -16 5 -8 9 -19 16 -24 16 -12 0 -29 -63
-34 -130 -2 -30 -9 -72 -14 -92 -5 -20 -7 -39 -4 -42 8 -9 8 -66 0 -66 -5 0
-8 -4 -8 -10 0 -5 7 -10 15 -10 8 0 15 -4 15 -10 0 -5 -6 -10 -14 -10 -30 0
-31 -75 -2 -144 9 -22 14 -47 11 -57 -7 -20 23 -83 54 -116 12 -12 21 -27 21
-33 0 -5 5 -10 10 -10 6 0 10 -7 10 -15 0 -8 5 -15 11 -15 6 0 31 -17 55 -39
55 -48 77 -54 106 -29 20 17 24 17 34 4 6 -9 13 -15 15 -13 2 1 -2 -3 -9 -9
-16 -15 6 -25 37 -17 14 4 21 1 21 -10 0 -8 9 -17 20 -20 12 -3 18 -1 14 5 -5
7 2 9 19 4 14 -3 29 -2 32 4 10 15 25 12 25 -6 0 -12 7 -14 30 -9 19 4 30 3
30 -4 0 -15 64 -9 83 7 12 10 16 9 21 -3 7 -18 37 -20 54 -3 8 8 12 9 12 1 0
-13 42 -5 52 10 4 7 11 7 20 0 16 -13 48 -9 58 8 4 6 13 8 20 4 6 -4 17 1 25
11 13 18 14 18 15 1 0 -16 2 -16 24 -2 14 10 27 12 30 6 7 -11 48 -2 58 13 6
8 8 8 8 0 0 -13 31 -7 117 21 78 26 86 20 62 -57 -19 -63 -23 -138 -6 -138 4
0 7 -10 6 -22 -1 -13 2 -34 8 -47 l9 -23 18 27 c10 15 19 48 19 74 1 25 5 48
8 51 10 8 17 100 8 94 -5 -3 -9 0 -9 5 0 6 6 11 14 11 16 0 26 30 26 78 0 35
-10 39 -55 22 -20 -8 -26 -15 -22 -30 3 -13 0 -20 -9 -20 -8 0 -14 6 -13 13 3
27 -2 35 -26 34 -13 0 -22 -3 -20 -8 3 -4 -3 -7 -12 -7 -36 2 -136 -24 -123
-32 7 -4 9 -13 5 -20 -6 -9 -13 -6 -26 11 -10 13 -19 19 -19 12 0 -8 -11 -10
-34 -6 -19 3 -36 1 -40 -6 -4 -6 -13 -11 -19 -11 -7 0 -6 4 3 11 12 9 11 10
-5 4 -11 -3 -33 -9 -48 -12 -19 -4 -26 -10 -23 -20 4 -9 2 -11 -7 -6 -18 11
-91 11 -99 -1 -5 -7 -8 -7 -8 2 0 9 -5 10 -17 4 -10 -5 -33 -8 -52 -6 -29 4
-32 2 -21 -11 21 -26 5 -27 -22 -2 -23 21 -35 24 -98 22 -53 -1 -74 3 -77 13
-4 9 -14 11 -32 7 -17 -4 -21 -2 -13 3 10 7 7 11 -12 14 -14 3 -29 1 -33 -3
-5 -5 -20 1 -34 14 -14 12 -38 30 -54 39 -51 28 -122 92 -133 118 -22 54 -50
185 -54 255 -2 31 12 143 23 193 5 24 7 53 3 64 -4 12 -2 18 4 14 5 -3 12 15
16 43 3 26 9 51 13 55 4 3 9 17 11 29 5 31 7 38 22 72 7 17 12 37 11 46 -1 9
5 19 14 22 8 4 15 15 15 26 0 11 5 23 10 26 6 3 10 14 10 25 0 10 7 21 16 24
9 4 14 13 10 21 -3 8 -1 15 5 15 6 0 7 5 3 12 -4 6 1 17 11 25 11 7 15 13 11
13 -5 0 -2 8 5 17 12 15 12 16 -1 8 -8 -5 -4 5 10 22 14 17 33 45 42 62 11 20
25 31 39 31 42 0 139 32 139 46 0 8 5 14 10 14 6 0 10 -4 10 -10 0 -14 52 11
68 33 7 9 17 15 22 12 4 -3 11 2 14 11 3 8 10 12 16 9 5 -3 16 -3 23 2 6 4 21
9 32 9 54 5 137 33 152 52 9 11 16 12 26 4 8 -7 18 -8 23 -3 5 5 27 14 49 21
48 16 95 49 95 67 0 7 5 13 10 13 6 0 10 6 10 14 0 15 45 66 59 66 5 0 7 10 3
23 -5 20 -4 21 11 8 15 -11 17 -11 17 1 0 8 16 29 35 48 19 18 40 49 46 67 6
18 15 33 20 33 16 0 45 36 41 50 -3 9 1 11 14 6 10 -4 15 -4 12 0 -11 10 10
44 27 44 7 0 15 10 17 23 2 12 8 22 13 22 21 1 55 27 55 42 0 9 3 13 6 10 4
-4 14 1 23 11 9 10 30 25 47 32 19 8 30 19 27 27 -3 7 -1 13 5 13 6 0 13 -6
15 -12 3 -8 6 -6 6 4 1 10 15 24 31 33 17 9 30 22 30 31 0 10 6 13 19 9 13 -4
23 2 35 20 9 14 12 25 7 25 -6 0 -8 6 -5 13 2 7 13 13 23 13 10 0 17 -5 15
-11 -3 -6 4 -11 15 -12 12 -1 21 7 25 20 5 18 8 20 16 7 7 -12 13 -13 27 -3
10 6 17 16 16 22 -2 6 4 8 12 5 10 -4 15 0 15 15 0 23 10 27 26 11 12 -12 44
-3 44 11 0 4 6 6 13 3 7 -2 22 4 32 14 11 10 29 18 41 19 11 1 47 11 79 22 33
12 70 21 82 21 13 0 26 6 28 13 4 8 30 13 75 14 40 1 84 8 102 17 17 9 41 16
54 16 13 0 26 4 29 10 3 5 23 10 43 10 64 0 70 2 64 22 -2 10 1 18 7 18 6 0
11 -8 11 -17 0 -11 3 -14 8 -7 4 5 39 10 77 10 39 0 97 3 130 6 33 3 64 3 69
0 19 -11 64 -7 59 6 -3 6 0 12 6 12 6 0 11 -7 11 -15 0 -8 6 -12 14 -9 7 3 31
-2 52 -11 31 -13 50 -14 109 -6 39 6 82 8 95 5 25 -5 25 -5 5 11 l-20 17 20
-4 c14 -3 19 -11 18 -26 -2 -12 2 -22 8 -22 6 0 26 -16 44 -36 19 -20 38 -33
43 -30 13 8 23 -19 16 -39 -4 -8 -1 -15 6 -15 7 0 10 -7 6 -15 -3 -9 0 -15 8
-15 16 0 26 -22 26 -56 0 -16 4 -23 11 -18 8 4 9 -3 4 -25 -4 -20 0 -50 11
-84 9 -28 16 -53 15 -55 -1 -2 7 -11 18 -20 10 -9 22 -28 26 -40 6 -21 5 -23
-13 -13 -19 10 -20 9 -16 -11 16 -67 22 -104 18 -110 -5 -7 10 -12 27 -10 4 1
6 -10 5 -23 0 -14 -7 -25 -13 -25 -7 0 -13 -4 -13 -8 0 -4 6 -14 13 -21 10
-11 9 -14 -1 -18 -10 -4 -10 -8 -1 -20 8 -9 9 -17 3 -21 -6 -4 -11 -42 -13
-84 -1 -43 -6 -92 -11 -109 -5 -17 -9 -34 -8 -38 0 -3 -1 -8 -2 -11 -1 -3 -3
-12 -5 -20 -3 -8 -10 -35 -16 -60 -29 -109 -150 -330 -251 -457 -27 -35 -47
-63 -43 -63 4 0 -76 -82 -177 -183 -224 -223 -261 -267 -225 -267 21 0 97 44
97 56 0 17 69 76 80 69 6 -3 7 1 4 9 -7 19 7 21 24 4 9 -9 12 -8 12 4 0 9 9
18 21 21 12 3 18 10 15 16 -4 6 -14 7 -24 4 -16 -5 -16 -5 0 12 13 14 20 16
31 7 17 -15 27 -6 27 24 0 17 4 22 15 17 18 -6 55 23 55 43 0 8 -6 11 -15 8
-8 -4 -15 -1 -15 5 0 6 6 12 13 12 17 2 20 1 40 -6 11 -5 17 -2 17 8 0 8 16
31 35 51 19 21 35 41 35 45 0 4 12 12 28 18 27 12 27 12 1 7 -18 -4 -26 -1
-26 9 0 8 5 13 12 11 6 -3 17 7 25 20 7 14 17 23 22 20 14 -9 36 15 43 46 3
16 12 31 19 33 8 3 16 16 20 30 3 13 26 46 50 73 25 26 43 51 40 55 -7 12 17
69 27 63 5 -3 9 4 9 15 0 30 1 34 13 56 6 11 12 29 14 40 2 10 12 29 23 40 11
12 20 25 20 30 0 4 -11 -5 -25 -21 -13 -15 -27 -25 -31 -21 -4 3 -1 14 7 23 8
10 13 26 11 36 -2 11 2 26 10 35 10 13 10 17 1 20 -20 7 -16 43 5 43 13 0 14
-2 4 -9 -10 -6 -10 -10 1 -20 12 -9 16 -7 20 11 4 14 0 26 -11 34 -16 12 -16
13 0 14 11 0 15 6 11 20 -3 12 2 29 12 40 17 19 17 21 2 38 -21 23 -22 39 -2
22 8 -7 15 -9 16 -4 0 5 2 21 4 36 2 18 -2 31 -13 37 -16 9 -16 10 0 16 10 4
15 12 11 18 -3 5 -6 25 -5 44 1 18 -3 33 -9 33 -6 0 -8 -9 -4 -20 4 -11 2 -20
-4 -20 -15 0 -14 22 3 54 13 25 13 54 1 114 -3 15 -10 52 -14 82 -13 79 -22
111 -31 105 -6 -4 -19 35 -25 80 -1 6 -5 17 -8 25 -3 8 -7 24 -10 35 -2 11 -9
19 -16 17 -8 -2 -11 3 -8 12 3 8 -1 20 -9 26 -8 7 -14 21 -14 32 0 11 -9 22
-20 25 -11 3 -20 13 -20 22 0 9 -5 22 -12 29 -9 9 -8 16 4 29 9 10 25 38 36
61 20 41 20 46 5 68 -8 13 -16 24 -17 24 0 0 -12 -6 -25 -13z m-746 -128 c-4
-5 -12 -9 -18 -8 -9 0 -8 2 1 6 6 2 9 10 6 15 -4 7 -2 8 5 4 6 -4 9 -12 6 -17z
m810 -289 c3 -5 1 -10 -4 -10 -6 0 -11 5 -11 10 0 6 2 10 4 10 3 0 8 -4 11
-10z m30 -10 c3 -5 1 -10 -4 -10 -6 0 -11 5 -11 10 0 6 2 10 4 10 3 0 8 -4 11
-10z m-1795 -30 c0 -5 -2 -10 -4 -10 -3 0 -8 5 -11 10 -3 6 -1 10 4 10 6 0 11
-4 11 -10z m1770 6 c0 -3 -4 -8 -10 -11 -5 -3 -10 -1 -10 4 0 6 5 11 10 11 6
0 10 -2 10 -4z m80 -66 c0 -5 -4 -10 -10 -10 -5 0 -10 5 -10 10 0 6 5 10 10
10 6 0 10 -4 10 -10z m3 -100 c-3 -11 -7 -20 -9 -20 -2 0 -4 9 -4 20 0 11 4
20 9 20 5 0 7 -9 4 -20z m-2358 -67 c-9 -9 -34 -40 -56 -69 -21 -29 -44 -56
-51 -60 -7 -4 -3 4 10 18 12 13 22 29 22 34 0 6 14 23 30 39 17 16 30 35 30
42 0 7 7 13 16 13 14 0 14 -2 -1 -17z m-132 -183 c-9 -22 -22 -40 -30 -40 -7
0 -13 2 -13 6 0 5 53 74 57 74 1 0 -6 -18 -14 -40z m-43 -81 c0 -14 -26 -16
-37 -4 -9 10 -7 13 13 11 13 0 24 -4 24 -7z m-230 -93 c0 -2 -7 -7 -16 -10 -8
-3 -12 -2 -9 4 6 10 25 14 25 6z m-58 -28 c-9 -9 -15 -9 -24 1 -9 10 -9 12 -1
7 6 -3 15 -1 18 5 4 5 10 8 13 4 3 -3 0 -11 -6 -17z m-675 -354 c-3 -3 -12 -4
-19 -1 -8 3 -5 6 6 6 11 1 17 -2 13 -5z m183 -194 c0 -5 -4 -10 -10 -10 -5 0
-10 5 -10 10 0 6 5 10 10 10 6 0 10 -4 10 -10z m-199 -633 c-10 -9 -11 -8 -5
6 3 10 9 15 12 12 3 -3 0 -11 -7 -18z m1253 -432 c-4 -8 -8 -15 -10 -15 -2 0
-4 7 -4 15 0 8 4 15 10 15 5 0 7 -7 4 -15z m-254 1 c0 -3 -4 -8 -10 -11 -5 -3
-10 -1 -10 4 0 6 5 11 10 11 6 0 10 -2 10 -4z m255 -176 c3 -5 -1 -10 -9 -10
-9 0 -16 5 -16 10 0 6 4 10 9 10 6 0 13 -4 16 -10z"/>
<path d="M2327 2722 c-16 -2 -43 -11 -60 -21 -26 -15 -32 -24 -32 -52 0 -30 3
-34 29 -37 15 -2 41 2 56 8 73 30 121 5 123 -64 1 -20 4 -36 8 -36 7 0 3 -49
-5 -57 -2 -3 -1 -16 4 -28 5 -14 5 -25 0 -27 -5 -2 -12 -30 -15 -63 -3 -33 -8
-81 -11 -107 -3 -27 -1 -48 4 -48 15 0 31 22 25 36 -3 8 -1 14 5 14 5 0 7 12
4 26 -3 17 -1 25 5 21 12 -7 43 34 43 55 0 9 -3 9 -10 -2 -8 -11 -9 -7 -4 15
4 17 14 35 22 41 8 6 12 16 8 23 -4 6 -2 18 4 26 8 9 10 29 6 52 -3 21 -7 56
-9 78 -3 39 -24 85 -39 85 -5 0 -8 7 -8 15 0 26 -94 55 -153 47z m185 -204
c-9 -9 -12 -7 -12 12 0 19 3 21 12 12 9 -9 9 -15 0 -24z"/>
<path d="M2104 2516 c-27 -19 -45 -83 -49 -167 -1 -37 -6 -73 -10 -80 -6 -8
-4 -10 4 -5 9 6 11 -1 6 -26 -8 -47 16 -106 61 -150 36 -36 69 -54 46 -25 -8
10 -6 16 9 25 16 10 17 15 7 31 -7 11 -15 18 -19 15 -12 -7 -32 68 -33 128 -1
31 -5 60 -8 64 -4 3 0 13 8 21 8 8 12 19 8 24 -3 6 0 17 8 26 9 12 9 15 1 9
-18 -10 -16 -3 6 23 26 30 24 95 -4 99 -11 1 -29 -4 -41 -12z m-18 -193 c-10
-10 -19 5 -10 18 6 11 8 11 12 0 2 -7 1 -15 -2 -18z"/>
<path d="M2770 2462 c0 -4 -12 -9 -26 -10 -15 -1 -33 -7 -41 -14 -19 -16 -45
-77 -45 -108 0 -14 -5 -28 -12 -32 -8 -5 -8 -13 2 -28 7 -11 8 -20 3 -20 -15
0 -20 -27 -11 -58 8 -31 43 -72 60 -72 6 0 10 -3 10 -8 0 -15 102 -54 126 -48
13 4 24 10 24 14 0 5 9 18 20 29 16 18 18 27 9 51 -8 23 -7 38 5 66 11 26 12
36 3 36 -7 0 -4 5 6 11 21 12 22 29 2 29 -11 0 -14 7 -9 24 4 19 -1 29 -25 47
-17 12 -28 26 -25 31 3 4 9 6 14 3 5 -3 3 7 -5 22 -8 15 -22 31 -32 35 -25 9
-53 10 -53 0z"/>
<path d="M2313 2203 c-4 -10 -16 -28 -28 -41 -18 -17 -22 -32 -20 -68 2 -25 8
-51 14 -57 16 -16 49 19 61 64 6 21 15 41 20 44 16 10 12 52 -5 59 -8 3 -15 1
-15 -4 0 -6 -5 -10 -11 -10 -6 0 -9 7 -5 15 3 8 3 15 0 15 -2 0 -8 -8 -11 -17z"/>
<path d="M2436 2183 c-4 -5 -13 -8 -19 -8 -13 0 -37 -43 -37 -67 0 -10 5 -18
10 -18 6 0 10 -8 10 -18 0 -22 -22 -72 -32 -72 -4 0 -5 -7 -2 -15 10 -24 -16
-17 -38 10 -16 21 -22 23 -38 13 -20 -13 -43 -55 -36 -66 2 -4 7 -45 11 -92 3
-47 8 -107 10 -133 3 -34 10 -54 26 -68 12 -10 25 -19 28 -20 3 0 21 -2 38 -5
27 -3 36 1 49 22 16 23 16 27 1 41 -9 9 -26 17 -39 19 -13 1 -26 3 -29 3 -11
2 -18 41 -9 46 9 5 6 37 -5 54 -3 5 -1 12 4 15 5 3 9 21 8 40 0 19 -4 33 -8
30 -4 -2 -5 5 -2 16 3 11 8 20 12 21 58 6 79 13 98 34 13 13 23 30 23 38 0 7
4 17 9 23 20 20 17 127 -5 148 -17 18 -27 20 -38 9z"/>
<path d="M2530 2127 c0 -18 4 -37 9 -42 4 -6 13 -29 19 -53 10 -42 9 -46 -49
-149 -70 -127 -74 -137 -54 -153 8 -7 15 -9 15 -4 0 5 4 3 9 -5 11 -18 26 -8
61 40 16 23 26 47 23 58 -3 13 5 26 27 41 23 16 28 25 19 31 -10 6 -10 10 0
23 7 9 16 14 20 11 4 -2 8 16 10 40 1 24 -2 46 -8 49 -5 3 -7 16 -3 28 3 13 1
19 -5 15 -6 -4 -8 2 -6 16 3 15 -6 32 -28 55 -41 42 -59 42 -59 -1z m-32 -379
c-5 -13 -26 -18 -42 -10 -10 5 14 22 32 22 8 0 12 -6 10 -12z"/>
<path d="M1978 2033 c-56 -64 -67 -200 -24 -296 l25 -57 45 0 c49 0 96 14 108
33 4 7 8 22 8 35 0 12 4 22 9 22 4 0 6 11 4 24 -3 13 0 26 5 30 12 7 -14 82
-48 139 -12 20 -41 47 -65 61 -52 31 -48 30 -67 9z"/>
<path d="M3645 1530 c-8 -12 3 -88 16 -112 6 -12 6 -25 -2 -39 -6 -12 -13 -48
-15 -82 -2 -34 -8 -65 -14 -71 -5 -5 -10 -22 -10 -36 0 -15 -3 -30 -7 -34 -4
-4 -9 -19 -11 -34 -2 -14 -8 -32 -13 -39 -6 -6 -11 -25 -11 -42 -1 -16 -7 -32
-15 -35 -9 -4 -11 -11 -6 -18 4 -7 9 -23 11 -36 2 -20 -1 -23 -17 -17 -25 8
-51 -32 -30 -46 8 -5 19 -9 26 -9 7 0 10 -6 7 -14 -7 -18 15 -31 29 -17 8 8 5
16 -11 29 -28 25 -28 36 0 29 30 -8 58 10 58 38 0 13 5 27 10 30 6 3 10 14 10
23 0 9 6 28 13 42 8 14 16 39 20 55 3 17 9 39 13 49 5 14 4 17 -4 12 -7 -4
-12 -2 -12 3 0 6 6 11 14 11 21 0 44 135 28 161 -9 14 -9 19 -1 19 7 0 9 8 5
23 -4 12 -9 41 -11 63 -6 72 -48 129 -70 94z"/>
<path d="M2650 943 c-35 -59 -70 -164 -70 -209 0 -74 73 -132 149 -118 62 12
103 33 99 52 -2 10 -11 16 -22 14 -10 -2 -15 1 -12 6 3 5 -10 8 -29 8 -19 -1
-35 -4 -35 -8 0 -5 -12 -8 -26 -8 -14 0 -23 4 -19 10 3 6 0 12 -7 15 -15 6
-21 55 -7 55 5 0 9 9 9 20 0 10 8 23 18 29 16 9 16 11 -3 26 -17 14 -17 16 -2
11 13 -4 17 0 17 19 0 16 6 25 15 25 20 0 19 39 -1 68 -23 33 -49 27 -74 -15z"/>
<path d="M2361 956 c-12 -15 -6 -62 10 -72 11 -6 32 -81 34 -119 1 -16 -5 -47
-13 -68 -16 -42 -42 -57 -96 -57 -18 0 -35 -3 -39 -6 -11 -11 24 -53 39 -47 8
3 14 1 14 -3 0 -5 15 -9 34 -9 23 0 32 4 29 13 -4 8 0 10 11 6 22 -8 68 4 61
16 -8 13 20 41 30 32 5 -4 5 -1 1 6 -5 8 1 23 15 39 l24 25 -22 18 c-18 14
-20 19 -9 23 11 4 14 22 14 60 -1 44 -4 54 -16 49 -10 -4 -13 -1 -8 7 5 7 1
20 -8 30 -9 10 -16 24 -14 31 3 15 -37 40 -63 40 -9 0 -22 -6 -28 -14z"/>
<path d="M3500 850 c0 -16 5 -30 10 -30 6 0 10 -8 11 -17 0 -11 3 -13 6 -5 2
6 12 12 21 12 15 0 15 2 2 10 -15 9 -16 13 -19 45 -2 30 -31 16 -31 -15z"/>
<path d="M2054 718 c-28 -34 -44 -65 -44 -88 0 -11 -3 -20 -7 -20 -5 0 -8 -39
-8 -88 1 -68 5 -94 20 -117 24 -38 51 -65 65 -65 5 0 10 -4 10 -10 0 -5 8 -10
18 -10 10 0 23 -5 29 -11 7 -7 19 -8 30 -4 10 4 37 7 60 6 38 -2 42 0 48 28 7
34 14 37 34 19 11 -11 13 -9 8 10 -3 12 -2 22 3 22 10 0 22 -29 15 -39 -2 -4
3 -8 11 -8 9 0 13 6 9 15 -8 21 4 35 19 22 17 -13 66 24 65 48 0 10 -3 12 -5
5 -3 -7 -12 -9 -20 -6 -11 4 -12 9 -4 19 17 20 -59 -3 -85 -26 -35 -30 -94
-39 -172 -26 -34 6 -44 13 -57 41 -20 42 -20 105 0 153 42 101 13 193 -42 130z
m346 -304 c0 -2 -7 -4 -15 -4 -8 0 -15 4 -15 10 0 5 7 7 15 4 8 -4 15 -8 15
-10z"/>
<path d="M3465 730 c-4 -6 -7 -25 -7 -43 -1 -17 -11 -45 -22 -62 -12 -16 -22
-32 -24 -34 -1 -3 -8 1 -14 7 -15 15 -68 16 -68 1 0 -5 -4 -8 -10 -4 -5 3 -23
-10 -41 -30 -18 -19 -42 -35 -54 -35 -11 0 -26 -5 -33 -12 -9 -9 -12 -8 -12 7
0 14 -3 16 -11 8 -6 -6 -18 -9 -26 -6 -12 5 -14 1 -8 -15 4 -16 2 -22 -9 -22
-8 0 -18 5 -21 10 -5 8 -11 8 -20 0 -7 -6 -19 -8 -27 -5 -9 4 -23 -1 -32 -10
-9 -9 -20 -14 -25 -10 -6 3 -14 -2 -19 -11 -8 -14 -12 -14 -32 -3 -17 11 -24
11 -27 2 -2 -7 -10 -10 -17 -7 -19 7 -131 -21 -132 -34 -1 -7 -2 -19 -3 -27 0
-8 -6 -15 -11 -15 -6 0 -10 8 -8 18 2 13 -3 16 -22 14 -104 -11 -136 -7 -173
21 -20 15 -44 43 -53 63 -11 22 -23 34 -33 32 -13 -3 -15 -15 -13 -58 1 -30 9
-59 16 -65 7 -5 11 -16 9 -22 -3 -7 1 -13 9 -13 7 0 25 -11 41 -24 21 -18 38
-23 77 -22 28 0 50 -2 50 -6 0 -16 20 -7 55 23 26 23 35 27 35 15 0 -20 39
-21 46 -1 7 16 41 25 124 30 30 2 71 6 90 8 39 6 194 62 225 81 11 6 33 13 49
14 17 1 33 8 38 15 4 6 8 8 8 3 0 -5 7 -3 15 4 9 7 22 9 32 4 10 -4 20 -8 23
-9 3 -1 13 -5 24 -10 20 -9 38 9 30 30 -3 7 2 15 10 18 9 4 16 14 16 22 0 9 4
13 10 10 13 -8 21 31 17 85 -5 67 -24 99 -42 70z m-775 -394 c0 -3 -4 -8 -10
-11 -5 -3 -10 -1 -10 4 0 6 5 11 10 11 6 0 10 -2 10 -4z"/>
<path d="M3370 480 c-12 -8 -9 -10 12 -10 15 0 30 5 33 10 8 13 -25 13 -45 0z"/>
</g>
</svg>
